<mxfile host="app.diagrams.net" modified="2021-07-09T08:40:23.540Z" agent="5.0 (Macintosh; Intel Mac OS X 10_15_5) AppleWebKit/537.36 (KHTML, like Gecko) Chrome/90.0.4430.212 Safari/537.36" etag="CFEfumkRvyvorFvXv65d" version="14.8.4" type="github">
  <diagram id="t8NL_LvqNAlttWv7_BnQ" name="Page-1">
    <mxGraphModel dx="946" dy="519" grid="1" gridSize="10" guides="1" tooltips="1" connect="1" arrows="1" fold="1" page="1" pageScale="1" pageWidth="827" pageHeight="1169" math="0" shadow="0">
      <root>
        <mxCell id="0" />
        <mxCell id="1" parent="0" />
        <mxCell id="92zkAvC7iZREQvi6Y92L-1" value="...the joint cannot be changed. no shortness of breath. &lt;b&gt;percussion sound&lt;/b&gt; cannot be changed. breathing is vesicular..." style="text;html=1;strokeColor=none;fillColor=none;align=center;verticalAlign=middle;whiteSpace=wrap;rounded=0;" vertex="1" parent="1">
          <mxGeometry x="70" y="90" width="360" height="20" as="geometry" />
        </mxCell>
        <mxCell id="92zkAvC7iZREQvi6Y92L-2" value="...the joint cannot be &lt;font color=&quot;#ff3333&quot;&gt;changed. no shortness of breath.&lt;/font&gt;&lt;b&gt;&lt;font color=&quot;#ff3333&quot;&gt;&amp;nbsp;&lt;/font&gt;{ps}&lt;/b&gt; &lt;font color=&quot;#3333ff&quot;&gt;cannot be changed. breathing is&lt;/font&gt; vesicular..." style="text;html=1;strokeColor=none;fillColor=none;align=center;verticalAlign=middle;whiteSpace=wrap;rounded=0;" vertex="1" parent="1">
          <mxGeometry x="70" y="140" width="360" height="20" as="geometry" />
        </mxCell>
        <mxCell id="92zkAvC7iZREQvi6Y92L-3" value="&lt;font color=&quot;#ff3333&quot;&gt;change no shortness of breath&lt;/font&gt;&amp;nbsp;&lt;b&gt;{ps}&lt;/b&gt; &lt;font color=&quot;#3333ff&quot;&gt;cannot be change breath is&lt;/font&gt;" style="text;html=1;strokeColor=none;fillColor=none;align=center;verticalAlign=middle;whiteSpace=wrap;rounded=0;" vertex="1" parent="1">
          <mxGeometry x="70" y="190" width="360" height="20" as="geometry" />
        </mxCell>
      </root>
    </mxGraphModel>
  </diagram>
</mxfile>
